# xmcd
#
# Track frame offsets: 
#        150
#        19521
#        32266
#        49549
#        61645
#        79269
#        91043
#        109034
#
# Disc length: 1662 seconds
#
# Revision: 0
# Processed by: cddbd v1.5.2PL0 Copyright (c) Steve Scherf et al.
# Submitted via: ExactAudioCopyFreeDBPlugin 1.0
#
DISCID=48067c08
DTITLE=Jonathan Parker - Back to Earth
DYEAR=2017
DGENRE=Country
TTITLE0=Hard Time Blues
TTITLE1=Train Wreck
TTITLE2=A Honky Tonk Song
TTITLE3=Wings
TTITLE4=Roommates
TTITLE5=Dog Bite Your Hide
TTITLE6=Back to Earth
TTITLE7=Uncloudy Day
EXTD=
EXTT0=
EXTT1=
EXTT2=
EXTT3=
EXTT4=
EXTT5=
EXTT6=
EXTT7=
PLAYORDER=
